<svg width="320" height="240" xmlns="http://www.w3.org/2000/svg">

 <g>
  <title>Layer 1</title>
  <rect stroke-width="20" stroke="#000" rx="14" id="svg_2" height="220" width="300" y="10" x="10" fill="#fff"/>
  <path id="svg_6" d="m225.47905,71.12205l-29.1018,0l0,-11.62205l-72.75449,0l0,11.62205l-29.1018,0c-8.56757,0 -15.52096,6.94224 -15.52096,15.49606l0,80.38583c0,8.55383 6.95339,15.49606 15.52096,15.49606l130.95808,0c8.56757,0 15.52096,-6.94224 15.52096,-15.49606l0,-80.38583c0,-8.55383 -6.95339,-15.49606 -15.52096,-15.49606zm-65.48292,102.65367c-25.93552,0 -47.0285,-21.0669 -47.0285,-46.96082c0,-25.89392 21.09298,-46.96857 47.0285,-46.96857s47.04402,21.07465 47.04402,46.96857c0,25.89392 -21.11626,46.96082 -47.04402,46.96082zm0,-78.44107c-17.41451,0 -31.52307,14.09367 -31.52307,31.4725c0,17.38658 14.11631,31.4725 31.52307,31.4725c17.41451,0 31.52307,-14.08592 31.52307,-31.4725c0.00776,-17.37883 -14.10079,-31.4725 -31.52307,-31.4725z" stroke-width="9" stroke="#000" fill="#fff"/>
 </g>
</svg>
