<svg width="49" height="39" xmlns="http://www.w3.org/2000/svg">

 <g>
  <title>Layer 1</title>
  <path id="svg_2" d="m1,10c0,-4.89041 4.10959,-9 9,-9l29,0c4.89041,0 9,4.10959 9,9l0,19c0,4.89041 -4.10959,9 -9,9l-29,0c-4.89041,0 -9,-4.10959 -9,-9l0,-19z" opacity="undefined" stroke-width="2" stroke="#000" fill="#fff"/>
  <path stroke-width="2" stroke="#000" id="svg_6" d="m36.62575,9.17323l-5.38922,0l0,-2.17323l-13.47305,0l0,2.17323l-5.38922,0c-1.58659,0 -2.87425,1.29814 -2.87425,2.89764l0,15.0315c0,1.5995 1.28766,2.89764 2.87425,2.89764l24.25149,0c1.58659,0 2.87425,-1.29814 2.87425,-2.89764l0,-15.0315c0,-1.5995 -1.28766,-2.89764 -2.87425,-2.89764zm-12.12647,19.1954c-4.80287,0 -8.70898,-3.93934 -8.70898,-8.78129c0,-4.84195 3.90611,-8.78274 8.70898,-8.78274s8.71186,3.94079 8.71186,8.78274c0,4.84195 -3.91042,8.78129 -8.71186,8.78129zm0,-14.66784c-3.22491,0 -5.8376,2.6354 -5.8376,5.8851c0,3.25115 2.61413,5.8851 5.8376,5.8851c3.22491,0 5.8376,-2.63395 5.8376,-5.8851c0.00144,-3.2497 -2.61126,-5.8851 -5.8376,-5.8851z" fill="#b2b2b2"/>
 </g>
</svg>
